<svg xmlns="http://www.w3.org/2000/svg" xmlns:xlink="http://www.w3.org/1999/xlink" version="1.1" x="0px" y="0px" viewBox="0 0 64 80" style="enable-background:new 0 0 64 64;" xml:space="preserve">
<g>
<path d="M12.741,6.054V3c0-0.553-0.448-1-1-1s-1,0.447-1,1v3.054c0,0.553,0.448,1,1,1S12.741,6.606,12.741,6.054z"/><path d="M15.635,7.909c0.256,0,0.512-0.098,0.707-0.293l2.159-2.159c0.391-0.391,0.391-1.023,0-1.414s-1.023-0.391-1.414,0   l-2.159,2.159c-0.391,0.391-0.391,1.023,0,1.414C15.123,7.812,15.379,7.909,15.635,7.909z"/>
<path d="M7.615,7.909c0.256,0,0.512-0.098,0.707-0.293c0.391-0.391,0.391-1.023,0-1.414L6.163,4.043   c-0.391-0.391-1.023-0.391-1.414,0s-0.391,1.023,0,1.414l2.159,2.159C7.104,7.812,7.359,7.909,7.615,7.909z"/>
<path d="M44.071,23.026c-5.381,0-9.759,4.378-9.759,9.76c0,5.381,4.378,9.759,9.759,9.759c5.381,0,9.759-4.378,9.759-9.759   C53.831,27.404,49.453,23.026,44.071,23.026z M44.071,40.545c-4.278,0-7.759-3.48-7.759-7.759s3.48-7.76,7.759-7.76   s7.759,3.481,7.759,7.76S48.35,40.545,44.071,40.545z"/>
<path d="M45.143,27.25c-2.196,0-3.982,1.786-3.982,3.982c0,2.195,1.787,3.981,3.982,3.981s3.982-1.786,3.982-3.981   C49.125,29.036,47.339,27.25,45.143,27.25z M45.143,33.214c-1.093,0-1.982-0.889-1.982-1.981s0.889-1.982,1.982-1.982   c1.093,0,1.982,0.89,1.982,1.982S46.236,33.214,45.143,33.214z"/>
<path d="M6.491,22.286h6.911c0.552,0,1-0.447,1-1v-4.581c0-0.553-0.448-1-1-1H6.491c-0.552,0-1,0.447-1,1v4.581   C5.491,21.839,5.939,22.286,6.491,22.286z M7.491,17.705h4.911v2.581H7.491V17.705z"/>
<path d="M19.526,15.585c-1.881,0-3.411,1.53-3.411,3.41c0,1.881,1.53,3.411,3.411,3.411s3.411-1.53,3.411-3.411   C22.937,17.115,21.407,15.585,19.526,15.585z M19.526,20.406c-0.778,0-1.411-0.633-1.411-1.411c0-0.777,0.633-1.41,1.411-1.41   c0.778,0,1.411,0.633,1.411,1.41C20.937,19.773,20.304,20.406,19.526,20.406z"/>
<path d="M21.188,25.67H6.491c-0.552,0-1,0.447-1,1s0.448,1,1,1h14.696c0.552,0,1-0.447,1-1S21.74,25.67,21.188,25.67z"/><path d="M21.188,31.375H6.491c-0.552,0-1,0.447-1,1s0.448,1,1,1h14.696c0.552,0,1-0.447,1-1S21.74,31.375,21.188,31.375z"/>
<path d="M21.188,37.08H6.491c-0.552,0-1,0.447-1,1s0.448,1,1,1h14.696c0.552,0,1-0.447,1-1S21.74,37.08,21.188,37.08z"/><path d="M21.188,42.786H6.491c-0.552,0-1,0.447-1,1s0.448,1,1,1h14.696c0.552,0,1-0.447,1-1S21.74,42.786,21.188,42.786z"/>
<path d="M59,12h-5.433l-1.772-5.716c-0.13-0.419-0.517-0.704-0.955-0.704H37.3c-0.438,0-0.825,0.285-0.955,0.704L34.573,12H14.786   v-1.312c0-1.598-1.3-2.897-2.897-2.897h-0.206c-1.598,0-2.897,1.3-2.897,2.897V12H5c-1.654,0-3,1.346-3,3v34c0,1.654,1.346,3,3,3   h54c1.654,0,3-1.346,3-3V15C62,13.346,60.654,12,59,12z M35.31,14c0.438,0,0.825-0.285,0.955-0.704l1.771-5.716h12.066l1.772,5.716   C52.005,13.715,52.392,14,52.83,14h2.313v11.87c-2.313-3.69-6.405-6.156-11.072-6.156c-4.667,0-8.758,2.466-11.071,6.156V14H35.31z    M55.143,32.786c0,6.104-4.967,11.071-11.072,11.071C37.967,43.857,33,38.891,33,32.786c0-6.105,4.967-11.072,11.071-11.072   C50.176,21.714,55.143,26.681,55.143,32.786z M10.786,10.688c0-0.495,0.403-0.897,0.897-0.897h0.206   c0.495,0,0.897,0.402,0.897,0.897V12h-2V10.688z M60,49c0,0.552-0.449,1-1,1H5c-0.551,0-1-0.448-1-1V15c0-0.552,0.449-1,1-1h4.786   h4H31v18.786c0,7.208,5.864,13.071,13.071,13.071c7.208,0,13.072-5.863,13.072-13.071V14H59c0.551,0,1,0.448,1,1V49z"/>
<path d="M40.648,14h6.846c0.318,0,0.617-0.151,0.805-0.406c0.188-0.256,0.244-0.586,0.15-0.89l-0.777-2.509   c-0.129-0.419-0.517-0.704-0.955-0.704h-5.292c-0.438,0-0.826,0.285-0.955,0.704l-0.777,2.509c-0.094,0.304-0.039,0.634,0.15,0.89   C40.032,13.849,40.331,14,40.648,14z M42.163,11.491h3.818L46.138,12h-4.132L42.163,11.491z"/>
</g>
</svg>