<svg xmlns="http://www.w3.org/2000/svg" data-name="Layer 1" viewBox="0 0 100 125" x="0px" y="0px"><path d="M49.1,69.513c.919-.2,1.8-.383,2.631-.537.992-.184,1.083-.053,1.6.674a4.023,4.023,0,0,0,3.2,2.01c.089.006.179.008.269.008,3.093,0,6.4-3.214,6.772-3.591a1.5,1.5,0,0,0,.407-.748c.866-4.073-.991-11.644-7.115-18.643-5.1-5.831-4.812-10.855-4.8-11.076,0-.021,0-.04,0-.061s.005-.037.005-.056V32.437a11.716,11.716,0,0,1,1.34-4.7,13.079,13.079,0,0,0,1.531-4.427l.767.786a1.5,1.5,0,0,0,2.018.119L62.8,20.105a1.5,1.5,0,0,0,.54-1.382C63.282,18.3,61.691,8.239,50.017,5.539a1.51,1.51,0,0,0-.949.091L39.677,9.822,30.285,5.63a1.509,1.509,0,0,0-.949-.091C17.662,8.239,16.07,18.3,16.008,18.723a1.5,1.5,0,0,0,.541,1.382l5.082,4.114a1.5,1.5,0,0,0,2.017-.119l.768-.786a13.1,13.1,0,0,0,1.53,4.427,11.682,11.682,0,0,1,1.34,4.706v5.046c0,.02,0,.039.006.059s0,.038,0,.057c.015.212.31,5.241-4.8,11.077-6.125,7-7.981,14.57-7.115,18.644a1.5,1.5,0,0,0,.407.747c.376.377,3.679,3.591,6.772,3.591.089,0,.18,0,.269-.008a4.025,4.025,0,0,0,3.2-2.01c.514-.727.607-.86,1.6-.674.83.154,1.712.341,2.63.537a58.37,58.37,0,0,0,7.68,1.259V84.885H34.961a6.993,6.993,0,0,0-6.985,6.986V93a1.5,1.5,0,0,0,1.5,1.5H49.393a1.5,1.5,0,0,0,1.5-1.5V91.871a6.994,6.994,0,0,0-6.985-6.986H40.935V70.807A55.3,55.3,0,0,0,49.1,69.513ZM47.876,91.5H30.993a3.991,3.991,0,0,1,3.968-3.615h8.947A3.992,3.992,0,0,1,47.876,91.5ZM39.918,35.993a1.48,1.48,0,0,0-.241.024,1.5,1.5,0,0,0-.242-.024H30.286V33.91h9.149a1.5,1.5,0,0,0,.242-.024,1.48,1.48,0,0,0,.241.024h9.148v2.083ZM27.824,18.646a1.5,1.5,0,1,0-2.754-1.19,9.566,9.566,0,0,0-.46,1.362l-2.154,2.208-3.3-2.671A13.867,13.867,0,0,1,29.532,8.579l9.291,4.147a1.489,1.489,0,0,0,.852.109,1.5,1.5,0,0,0,.855-.109l9.291-4.147A13.867,13.867,0,0,1,60.2,18.355l-3.3,2.671-2.154-2.208a9.566,9.566,0,0,0-.46-1.362,1.5,1.5,0,1,0-2.754,1.191,8.727,8.727,0,0,1-.737,7.624,14.21,14.21,0,0,0-1.567,4.639H39.918a1.48,1.48,0,0,0-.241.025,1.5,1.5,0,0,0-.242-.025H30.128a14.258,14.258,0,0,0-1.567-4.639A8.729,8.729,0,0,1,27.824,18.646Zm.349,47.38a5.362,5.362,0,0,0-1.873-.05c-.4-5.224,1.715-8.864,3.942-12.688,1.631-2.8,3.318-5.7,3.781-9.142a1.5,1.5,0,1,0-2.972-.4c-.384,2.849-1.85,5.367-3.4,8.032-2.48,4.26-5.268,9.078-4.121,16.207-.392.55-.508.657-.887.681-1.224.065-3.17-1.267-4.4-2.395-.5-3.569,1.519-9.9,6.513-15.61a20.99,20.99,0,0,0,5.481-11.668h9.2a1.5,1.5,0,0,0,.242-.025,1.48,1.48,0,0,0,.241.025h9.2A20.993,20.993,0,0,0,54.6,50.661c4.993,5.707,7.012,12.04,6.513,15.61-1.233,1.128-3.23,2.463-4.4,2.395-.379-.024-.5-.131-.887-.681,1.147-7.13-1.641-11.947-4.121-16.207-1.552-2.665-3.018-5.183-3.4-8.032a1.5,1.5,0,1,0-2.973.4c.463,3.442,2.15,6.339,3.782,9.142,2.226,3.824,4.338,7.463,3.942,12.687a5.365,5.365,0,0,0-1.873.051c-.854.159-1.761.351-2.7.552a46.247,46.247,0,0,1-8.8,1.272,46.246,46.246,0,0,1-8.8-1.272C29.934,66.377,29.027,66.185,28.173,66.026Z"/><path d="M46,64.341a1.5,1.5,0,0,0,1.4,1.592l.1,0A1.5,1.5,0,0,0,49,64.53c.494-7.813-4.53-14.444-4.745-14.722a1.5,1.5,0,0,0-2.379,1.827C41.919,51.694,46.425,57.672,46,64.341Z"/><path d="M37.2,49.533a1.5,1.5,0,0,0-2.1.275c-.215.278-5.239,6.909-4.746,14.722a1.5,1.5,0,0,0,1.5,1.406q.048,0,.1,0a1.5,1.5,0,0,0,1.4-1.592c-.422-6.669,4.085-12.647,4.13-12.706A1.5,1.5,0,0,0,37.2,49.533Z"/><path d="M69.942,54.638h0a1.409,1.409,0,0,0,.307.2,1.024,1.024,0,0,0,.753.236,1.489,1.489,0,0,0,.851-.3,1.386,1.386,0,0,0,.209-.14h0l10.5-10.511A7.745,7.745,0,0,0,71.614,33.171l-.625.624-.613-.612A7.739,7.739,0,1,0,59.431,44.128l10.51,10.51ZM60.164,38.655A4.74,4.74,0,0,1,68.255,35.3l1.672,1.671a1.439,1.439,0,0,0,.277.185,1.579,1.579,0,0,0,.218.144,1.48,1.48,0,0,0,.512.1c.018,0,.034.01.051.01a1.5,1.5,0,0,0,.526-.1c.012,0,.026,0,.039-.007a1.545,1.545,0,0,0,.312-.206,1.4,1.4,0,0,0,.184-.122L73.733,35.3a4.745,4.745,0,0,1,6.708,6.712L71,51.456l-9.449-9.449A4.712,4.712,0,0,1,60.164,38.655Z"/><path d="M69.536,27.136a1.384,1.384,0,0,0,.111.262,1.487,1.487,0,0,0,1.347.894,1.526,1.526,0,0,0,.346-.04l8.354-1.97a5.1,5.1,0,0,0-2.226-9.959,5.1,5.1,0,0,0-9.9,2.454l1.967,8.358ZM70.748,16.5a2.1,2.1,0,0,1,3.839.625l.312,1.327h0v0a1.265,1.265,0,0,0,.044.127,1.65,1.65,0,0,0,.054.159,1.5,1.5,0,0,0,1.616.842c.03-.006.058,0,.088-.012l1.34-.313a2.108,2.108,0,0,1,.964,4.1l-6.894,1.626-1.623-6.9A2.087,2.087,0,0,1,70.748,16.5Z"/></svg>