<svg xmlns="http://www.w3.org/2000/svg" data-name="Layer 1" viewBox="0 0 100 125" x="0px" y="0px"><path d="m52.464,42.487c.047.031.084.078.103.136.042.135-.032.278-.167.32l-1.105.35.617,1.243c.003.006.006.012.009.018.058.128,0,.279-.128.337l-1.065.482c-.121.055-.266.007-.329-.112l-.661-1.227-.901.525h0c-.038.021-.081.034-.128.034-.141,0-.255-.114-.255-.255l.004-4.459c0-.056.017-.113.054-.161.087-.111.247-.13.357-.044l3.594,2.811Zm-35.89,30.666c-.072-.117-.077-.262-.015-.384l2.129-4.176c.004-.009.014-.012.019-.021.027-.046.063-.083.106-.114.014-.01.026-.02.041-.028.056-.03.117-.052.185-.052h62.844c.074,0,.14.026.199.062.014.008.026.016.039.026.055.043.1.095.126.161,0,.002.003.003.003.004l1.591,4.176c.046.121.03.257-.044.363-.073.107-.195.17-.324.17h-4.553s0,0-.001,0c0,0,0,0,0,0h-4.869s-.002,0-.002,0c0,0,0,0,0,0h-4.226s-.002,0-.002,0c0,0,0,0,0,0h-3.991s-.002,0-.002,0c0,0,0,0,0,0h-3.99s-.001,0-.002,0c0,0,0,0,0,0h-3.808s-.002,0-.003,0c0,0,0,0,0,0h-3.911s0,0,0,0h-.003s0,0,0,0h-8.219s0,0,0,0c0,0-.002,0-.002,0h-3.913s0,0,0,0c0,0-.001,0-.002,0h-3.809s0,0,0,0c0,0,0,0-.001,0h-3.991s0,0,0,0c0,0,0,0-.001,0h-3.992s0,0,0,0c0,0,0,0-.001,0h-4.227s0,0,0,0c0,0,0,0-.001,0h-4.87s0,0,0,0c0,0,0,0,0,0h-4.159c-.137,0-.264-.071-.336-.188Zm6.437-3.988l-.522,1.301h3.794l.395-1.301h-3.667Zm4.489,0l-.395,1.301h3.406l.395-1.301h-3.406Zm4.229,0l-.395,1.301h3.172l.395-1.301h-3.172Zm3.994,0l-.395,1.301h3.071l.34-1.301h-3.016Zm3.83,0l-.34,1.301h2.934l.305-1.301h-2.9Zm3.708,0l-.305,1.301h2.915l.202-1.301h-2.812Zm30.596,0l.203,1.301h3.825l-.33-1.301h-3.698Zm-32.2,3.389l.305-1.301h-2.955l-.34,1.301h2.99Zm-3.803,0l.34-1.301h-3.104l-.395,1.301h3.158Zm-3.981,0l.395-1.301h-3.172l-.395,1.301h3.172Zm-3.994,0l.395-1.301h-3.406l-.395,1.301h3.406Zm12.587,0h3.082l.202-1.301h-2.978l-.305,1.301Zm3.879,0h7.365l-.01-1.301h-7.153l-.202,1.301Zm8.152,0h3.096l-.113-1.301h-2.992l.01,1.301Zm3.886,0h3.01l-.148-1.301h-2.975l.113,1.301Zm3.802,0h3.182l-.203-1.301h-3.127l.148,1.301Zm3.979,0h3.198l-.203-1.301h-3.198l.203,1.301Zm3.994,0h3.432l-.203-1.301h-3.432l.203,1.301Zm4.229,0h4.029l-.33-1.301h-3.902l.203,1.301Zm-1.324-3.389h-3.432l.203,1.301h3.432l-.203-1.301Zm-4.229,0h-3.198l.203,1.301h3.197l-.203-1.301Zm-3.994,0h-3.04l.148,1.301h3.094l-.203-1.301Zm-3.832,0h-2.919l.113,1.301h2.954l-.148-1.301Zm-3.71,0h-2.825l.01,1.301h2.929l-.113-1.301Zm-3.613,0h-2.864l-.12,1.301h2.993l-.01-1.301Zm-3.654,0h-3.16l-.202,1.301h3.242l.12-1.301Zm-27.856,2.088l-.522,1.301h3.998l.395-1.301h-3.871Zm60.729,1.301l-.496-1.301h-3.511l.33,1.301h3.677Zm-1.291-3.389h-3.245l.33,1.301h3.411l-.496-1.301Zm-62.332,0l-.663,1.301h3.025l.522-1.301h-2.883Zm-1.728,3.389h3.252l.522-1.301h-3.11l-.663,1.301Zm71.801,5.317c.038.667-.265,1.362-.876,2.01-1.073,1.137-2.833,1.901-4.379,1.901H15.9c-2.898,0-5.256-1.734-5.256-3.865v-2.751c0-.133.033-.263.097-.379l4.996-9.095c-.025-.205-.057-.409-.057-.616V23.264c0-2.782,2.263-5.046,5.046-5.046h59.606c2.782,0,5.046,2.263,5.046,5.046v41.811c0,.222-.033.443-.062.663l3.803,9.385c.034.064.06.137.078.218.008.037.014.074.017.111h0l.002.04s0,0,0,0h0s.137,2.377.137,2.377Zm-72.098-12.796s0,0,0,0h66.549s0,0,0,0V23.264c0-1.914-1.557-3.471-3.471-3.471H20.726c-1.914,0-3.471,1.557-3.471,3.471v41.811Zm-5.036,10.292v.133h75.354l-3.586-8.85H17.007l-4.788,8.717Zm33.031,2.681c0,.101.085.186.186.186h9.126c.101,0,.186-.085.186-.186v-.973h-9.498v.973Zm42.531-.087l-.051-.887h-31.88v.973c0,.71-.578,1.288-1.288,1.288h-9.126c-.71,0-1.288-.578-1.288-1.288v-.973H12.218v.841c0,1.242,1.686,2.291,3.682,2.291h68.197c1.104,0,2.464-.592,3.234-1.407.294-.311.462-.625.449-.839ZM48.932,21.974c0-.903.734-1.637,1.637-1.637s1.637.734,1.637,1.637-.734,1.637-1.637,1.637-1.637-.734-1.637-1.637Zm.787,0c0,.469.381.85.85.85s.85-.381.85-.85-.381-.85-.85-.85-.85.381-.85.85Zm-29.275,38.399V24.644c0-.348.282-.63.63-.63h58.885c.348,0,.63.282.63.63v35.729c0,.348-.282.63-.63.63H21.074c-.348,0-.63-.282-.63-.63Zm1.259-.63h57.625V25.274H21.703v34.469Z"/></svg>