<svg xmlns="http://www.w3.org/2000/svg" xmlns:xlink="http://www.w3.org/1999/xlink" version="1.1" x="0px" y="0px" viewBox="0 0 512 640" style="enable-background:new 0 0 512 512;" xml:space="preserve"><g><g><g><path d="M226,96h60c2.761,0,5-2.238,5-5s-2.239-5-5-5h-60c-2.761,0-5,2.238-5,5S223.239,96,226,96z"/><circle cx="256" cy="71" r="10"/><path d="M256,416c-8.271,0-15,6.729-15,15s6.729,15,15,15s15-6.729,15-15S264.271,416,256,416z M256,436c-2.757,0-5-2.243-5-5     s2.243-5,5-5s5,2.243,5,5S258.757,436,256,436z"/><path d="M391,106h-5V64c0-20.953-17.047-38-38-38H164c-20.953,0-38,17.047-38,38v22h-5c-2.761,0-5,2.238-5,5v20     c0,2.762,2.239,5,5,5h5v20h-5c-2.761,0-5,2.238-5,5v20c0,2.762,2.239,5,5,5h5v20h-5c-2.761,0-5,2.238-5,5v20c0,2.762,2.239,5,5,5     h5v232c0,20.953,17.047,38,38,38h184c20.953,0,38-17.047,38-38V176h5c2.761,0,5-2.238,5-5v-60C396,108.238,393.761,106,391,106z      M136,64c0-15.439,12.561-28,28-28h184c15.439,0,28,12.561,28,28c0,36.124,0,288.412,0,312H136C136,370.381,136,68.344,136,64z      M348,476H164c-15.439,0-28-12.561-28-28v-62h240v62C376,463.439,363.439,476,348,476z"/></g></g></g></svg>